<svg xmlns="http://www.w3.org/2000/svg" xmlns:xlink="http://www.w3.org/1999/xlink" width="390" zoomAndPan="magnify" viewBox="0 0 292.5 292.5" height="390" preserveAspectRatio="xMidYMid meet" version="1.0"><defs><clipPath id="d74d6298bc"><path d="M 23 16 L 44 16 L 44 262 L 23 262 Z M 23 16 " clip-rule="nonzero"/></clipPath><clipPath id="60d93e830b"><path d="M 0 15.722656 L 0 276.1875 C 0 284.871094 7.039062 291.910156 15.722656 291.910156 L 276.1875 291.910156 C 284.871094 291.910156 291.910156 284.871094 291.910156 276.1875 L 291.910156 15.722656 C 291.910156 7.039062 284.871094 0 276.1875 0 L 15.722656 0 C 7.039062 0 0 7.039062 0 15.722656 Z M 0 15.722656 " clip-rule="nonzero"/></clipPath><clipPath id="2dcb085cc0"><path d="M 8 1 L 60 1 L 60 278 L 8 278 Z M 8 1 " clip-rule="nonzero"/></clipPath><clipPath id="e9efc95c58"><path d="M 0 15.722656 L 0 276.1875 C 0 284.871094 7.039062 291.910156 15.722656 291.910156 L 276.1875 291.910156 C 284.871094 291.910156 291.910156 284.871094 291.910156 276.1875 L 291.910156 15.722656 C 291.910156 7.039062 284.871094 0 276.1875 0 L 15.722656 0 C 7.039062 0 0 7.039062 0 15.722656 Z M 0 15.722656 " clip-rule="nonzero"/></clipPath><clipPath id="687a5c9478"><path d="M 49 85 L 71 85 L 71 262 L 49 262 Z M 49 85 " clip-rule="nonzero"/></clipPath><clipPath id="dd095fca16"><path d="M 0 15.722656 L 0 276.1875 C 0 284.871094 7.039062 291.910156 15.722656 291.910156 L 276.1875 291.910156 C 284.871094 291.910156 291.910156 284.871094 291.910156 276.1875 L 291.910156 15.722656 C 291.910156 7.039062 284.871094 0 276.1875 0 L 15.722656 0 C 7.039062 0 0 7.039062 0 15.722656 Z M 0 15.722656 " clip-rule="nonzero"/></clipPath><clipPath id="9105d3e883"><path d="M 34 69 L 86 69 L 86 278 L 34 278 Z M 34 69 " clip-rule="nonzero"/></clipPath><clipPath id="add08aa8eb"><path d="M 0 15.722656 L 0 276.1875 C 0 284.871094 7.039062 291.910156 15.722656 291.910156 L 276.1875 291.910156 C 284.871094 291.910156 291.910156 284.871094 291.910156 276.1875 L 291.910156 15.722656 C 291.910156 7.039062 284.871094 0 276.1875 0 L 15.722656 0 C 7.039062 0 0 7.039062 0 15.722656 Z M 0 15.722656 " clip-rule="nonzero"/></clipPath><clipPath id="e76c7de6eb"><path d="M 91 51 L 113 51 L 113 262 L 91 262 Z M 91 51 " clip-rule="nonzero"/></clipPath><clipPath id="89195f6f2f"><path d="M 0 15.722656 L 0 276.1875 C 0 284.871094 7.039062 291.910156 15.722656 291.910156 L 276.1875 291.910156 C 284.871094 291.910156 291.910156 284.871094 291.910156 276.1875 L 291.910156 15.722656 C 291.910156 7.039062 284.871094 0 276.1875 0 L 15.722656 0 C 7.039062 0 0 7.039062 0 15.722656 Z M 0 15.722656 " clip-rule="nonzero"/></clipPath><clipPath id="3040f478ec"><path d="M 76 36 L 128 36 L 128 278 L 76 278 Z M 76 36 " clip-rule="nonzero"/></clipPath><clipPath id="aab3adc62c"><path d="M 0 15.722656 L 0 276.1875 C 0 284.871094 7.039062 291.910156 15.722656 291.910156 L 276.1875 291.910156 C 284.871094 291.910156 291.910156 284.871094 291.910156 276.1875 L 291.910156 15.722656 C 291.910156 7.039062 284.871094 0 276.1875 0 L 15.722656 0 C 7.039062 0 0 7.039062 0 15.722656 Z M 0 15.722656 " clip-rule="nonzero"/></clipPath><clipPath id="042e79f8f2"><path d="M 118 109 L 139 109 L 139 262 L 118 262 Z M 118 109 " clip-rule="nonzero"/></clipPath><clipPath id="791e5e5151"><path d="M 0 15.722656 L 0 276.1875 C 0 284.871094 7.039062 291.910156 15.722656 291.910156 L 276.1875 291.910156 C 284.871094 291.910156 291.910156 284.871094 291.910156 276.1875 L 291.910156 15.722656 C 291.910156 7.039062 284.871094 0 276.1875 0 L 15.722656 0 C 7.039062 0 0 7.039062 0 15.722656 Z M 0 15.722656 " clip-rule="nonzero"/></clipPath><clipPath id="06a0c5bba8"><path d="M 102 94 L 155 94 L 155 278 L 102 278 Z M 102 94 " clip-rule="nonzero"/></clipPath><clipPath id="ec0f291236"><path d="M 0 15.722656 L 0 276.1875 C 0 284.871094 7.039062 291.910156 15.722656 291.910156 L 276.1875 291.910156 C 284.871094 291.910156 291.910156 284.871094 291.910156 276.1875 L 291.910156 15.722656 C 291.910156 7.039062 284.871094 0 276.1875 0 L 15.722656 0 C 7.039062 0 0 7.039062 0 15.722656 Z M 0 15.722656 " clip-rule="nonzero"/></clipPath><clipPath id="e0566f3f79"><path d="M 160 139 L 181 139 L 181 262 L 160 262 Z M 160 139 " clip-rule="nonzero"/></clipPath><clipPath id="b4ab357f4a"><path d="M 0 15.722656 L 0 276.1875 C 0 284.871094 7.039062 291.910156 15.722656 291.910156 L 276.1875 291.910156 C 284.871094 291.910156 291.910156 284.871094 291.910156 276.1875 L 291.910156 15.722656 C 291.910156 7.039062 284.871094 0 276.1875 0 L 15.722656 0 C 7.039062 0 0 7.039062 0 15.722656 Z M 0 15.722656 " clip-rule="nonzero"/></clipPath><clipPath id="e045c2a6d5"><path d="M 145 124 L 197 124 L 197 278 L 145 278 Z M 145 124 " clip-rule="nonzero"/></clipPath><clipPath id="d5136d1c56"><path d="M 0 15.722656 L 0 276.1875 C 0 284.871094 7.039062 291.910156 15.722656 291.910156 L 276.1875 291.910156 C 284.871094 291.910156 291.910156 284.871094 291.910156 276.1875 L 291.910156 15.722656 C 291.910156 7.039062 284.871094 0 276.1875 0 L 15.722656 0 C 7.039062 0 0 7.039062 0 15.722656 Z M 0 15.722656 " clip-rule="nonzero"/></clipPath><clipPath id="cd0f274068"><path d="M 186 175 L 208 175 L 208 262 L 186 262 Z M 186 175 " clip-rule="nonzero"/></clipPath><clipPath id="b01465346b"><path d="M 0 15.722656 L 0 276.1875 C 0 284.871094 7.039062 291.910156 15.722656 291.910156 L 276.1875 291.910156 C 284.871094 291.910156 291.910156 284.871094 291.910156 276.1875 L 291.910156 15.722656 C 291.910156 7.039062 284.871094 0 276.1875 0 L 15.722656 0 C 7.039062 0 0 7.039062 0 15.722656 Z M 0 15.722656 " clip-rule="nonzero"/></clipPath><clipPath id="b2cfd42deb"><path d="M 171 159 L 223 159 L 223 278 L 171 278 Z M 171 159 " clip-rule="nonzero"/></clipPath><clipPath id="fc06af0616"><path d="M 0 15.722656 L 0 276.1875 C 0 284.871094 7.039062 291.910156 15.722656 291.910156 L 276.1875 291.910156 C 284.871094 291.910156 291.910156 284.871094 291.910156 276.1875 L 291.910156 15.722656 C 291.910156 7.039062 284.871094 0 276.1875 0 L 15.722656 0 C 7.039062 0 0 7.039062 0 15.722656 Z M 0 15.722656 " clip-rule="nonzero"/></clipPath><clipPath id="4897af68b8"><path d="M 226 200 L 248 200 L 248 262 L 226 262 Z M 226 200 " clip-rule="nonzero"/></clipPath><clipPath id="e667de20db"><path d="M 0 15.722656 L 0 276.1875 C 0 284.871094 7.039062 291.910156 15.722656 291.910156 L 276.1875 291.910156 C 284.871094 291.910156 291.910156 284.871094 291.910156 276.1875 L 291.910156 15.722656 C 291.910156 7.039062 284.871094 0 276.1875 0 L 15.722656 0 C 7.039062 0 0 7.039062 0 15.722656 Z M 0 15.722656 " clip-rule="nonzero"/></clipPath><clipPath id="70bdbb36a5"><path d="M 211 185 L 263 185 L 263 278 L 211 278 Z M 211 185 " clip-rule="nonzero"/></clipPath><clipPath id="84222add43"><path d="M 0 15.722656 L 0 276.1875 C 0 284.871094 7.039062 291.910156 15.722656 291.910156 L 276.1875 291.910156 C 284.871094 291.910156 291.910156 284.871094 291.910156 276.1875 L 291.910156 15.722656 C 291.910156 7.039062 284.871094 0 276.1875 0 L 15.722656 0 C 7.039062 0 0 7.039062 0 15.722656 Z M 0 15.722656 " clip-rule="nonzero"/></clipPath><clipPath id="7880bd15f4"><path d="M 253 226 L 274 226 L 274 262 L 253 262 Z M 253 226 " clip-rule="nonzero"/></clipPath><clipPath id="699d8162e5"><path d="M 0 15.722656 L 0 276.1875 C 0 284.871094 7.039062 291.910156 15.722656 291.910156 L 276.1875 291.910156 C 284.871094 291.910156 291.910156 284.871094 291.910156 276.1875 L 291.910156 15.722656 C 291.910156 7.039062 284.871094 0 276.1875 0 L 15.722656 0 C 7.039062 0 0 7.039062 0 15.722656 Z M 0 15.722656 " clip-rule="nonzero"/></clipPath><clipPath id="6cd023e65f"><path d="M 237 211 L 289 211 L 289 278 L 237 278 Z M 237 211 " clip-rule="nonzero"/></clipPath><clipPath id="a3afcff97a"><path d="M 0 15.722656 L 0 276.1875 C 0 284.871094 7.039062 291.910156 15.722656 291.910156 L 276.1875 291.910156 C 284.871094 291.910156 291.910156 284.871094 291.910156 276.1875 L 291.910156 15.722656 C 291.910156 7.039062 284.871094 0 276.1875 0 L 15.722656 0 C 7.039062 0 0 7.039062 0 15.722656 Z M 0 15.722656 " clip-rule="nonzero"/></clipPath></defs><g clip-path="url(#d74d6298bc)"><g clip-path="url(#60d93e830b)"><path fill="#ffffff" d="M 41.261719 261.789062 C 41.261719 261.789062 26.148438 261.789062 26.148438 261.789062 C 24.65625 261.789062 23.445312 260.578125 23.445312 259.085938 C 23.445312 259.085938 23.445312 21.550781 23.445312 21.550781 C 23.445312 18.996094 25.515625 16.925781 28.066406 16.925781 C 28.066406 16.925781 39.34375 16.925781 39.34375 16.925781 C 41.898438 16.925781 43.964844 18.996094 43.964844 21.550781 C 43.964844 21.550781 43.964844 259.085938 43.964844 259.085938 C 43.964844 260.578125 42.757812 261.789062 41.261719 261.789062 Z M 41.261719 261.789062 " fill-opacity="1" fill-rule="nonzero"/></g></g><g clip-path="url(#2dcb085cc0)"><g clip-path="url(#e9efc95c58)"><path stroke-linecap="butt" transform="matrix(0.270284, 0, 0, 0.270284, 33.706099, 139.358157)" fill="none" stroke-linejoin="miter" d="M 27.95432 452.970516 C 27.95432 452.970516 -27.961878 452.970516 -27.961878 452.970516 C -33.482681 452.970516 -37.962914 448.490283 -37.962914 442.96948 C -37.962914 442.96948 -37.962914 -435.864357 -37.962914 -435.864357 C -37.962914 -445.316203 -30.303161 -452.975956 -20.865767 -452.975956 C -20.865767 -452.975956 20.858209 -452.975956 20.858209 -452.975956 C 30.310056 -452.975956 37.955357 -445.316203 37.955357 -435.864357 C 37.955357 -435.864357 37.955357 442.96948 37.955357 442.96948 C 37.955357 448.490283 33.489576 452.970516 27.95432 452.970516 Z M 27.95432 452.970516 " stroke="#000000" stroke-width="4" stroke-opacity="1" stroke-miterlimit="10"/></g></g><g clip-path="url(#687a5c9478)"><g clip-path="url(#dd095fca16)"><path fill="#ff3a33" d="M 67.507812 261.789062 C 67.507812 261.789062 52.394531 261.789062 52.394531 261.789062 C 50.902344 261.789062 49.691406 260.578125 49.691406 259.085938 C 49.691406 259.085938 49.691406 89.648438 49.691406 89.648438 C 49.691406 87.097656 51.761719 85.027344 54.3125 85.027344 C 54.3125 85.027344 65.589844 85.027344 65.589844 85.027344 C 68.140625 85.027344 70.210938 87.097656 70.210938 89.648438 C 70.210938 89.648438 70.210938 259.085938 70.210938 259.085938 C 70.210938 260.578125 69 261.789062 67.507812 261.789062 Z M 67.507812 261.789062 " fill-opacity="1" fill-rule="nonzero"/></g></g><g clip-path="url(#9105d3e883)"><g clip-path="url(#add08aa8eb)"><path stroke-linecap="butt" transform="matrix(0.270284, 0, 0, 0.270284, 59.950994, 173.408325)" fill="none" stroke-linejoin="miter" d="M 27.958757 326.991522 C 27.958757 326.991522 -27.957441 326.991522 -27.957441 326.991522 C -33.478244 326.991522 -37.958477 322.511289 -37.958477 316.990485 C -37.958477 316.990485 -37.958477 -309.89528 -37.958477 -309.89528 C -37.958477 -319.332674 -30.298724 -326.992427 -20.86133 -326.992427 C -20.86133 -326.992427 20.862646 -326.992427 20.862646 -326.992427 C 30.300041 -326.992427 37.959794 -319.332674 37.959794 -309.89528 C 37.959794 -309.89528 37.959794 316.990485 37.959794 316.990485 C 37.959794 322.511289 33.479561 326.991522 27.958757 326.991522 Z M 27.958757 326.991522 " stroke="#000000" stroke-width="4" stroke-opacity="1" stroke-miterlimit="10"/></g></g><g clip-path="url(#e76c7de6eb)"><g clip-path="url(#89195f6f2f)"><path fill="#ffffff" d="M 109.777344 261.789062 C 109.777344 261.789062 94.664062 261.789062 94.664062 261.789062 C 93.171875 261.789062 91.960938 260.578125 91.960938 259.085938 C 91.960938 259.085938 91.960938 55.945312 91.960938 55.945312 C 91.960938 53.390625 94.027344 51.324219 96.582031 51.324219 C 96.582031 51.324219 107.859375 51.324219 107.859375 51.324219 C 110.410156 51.324219 112.480469 53.390625 112.480469 55.945312 C 112.480469 55.945312 112.480469 259.085938 112.480469 259.085938 C 112.480469 260.578125 111.269531 261.789062 109.777344 261.789062 Z M 109.777344 261.789062 " fill-opacity="1" fill-rule="nonzero"/></g></g><g clip-path="url(#3040f478ec)"><g clip-path="url(#aab3adc62c)"><path stroke-linecap="butt" transform="matrix(0.270284, 0, 0, 0.270284, 102.21997, 156.555542)" fill="none" stroke-linejoin="miter" d="M 27.960813 389.343541 C 27.960813 389.343541 -27.955385 389.343541 -27.955385 389.343541 C -33.476188 389.343541 -37.956421 384.863308 -37.956421 379.342505 C -37.956421 379.342505 -37.956421 -372.238261 -37.956421 -372.238261 C -37.956421 -381.690108 -30.311121 -389.335409 -20.859274 -389.335409 C -20.859274 -389.335409 20.864702 -389.335409 20.864702 -389.335409 C 30.302096 -389.335409 37.96185 -381.690108 37.96185 -372.238261 C 37.96185 -372.238261 37.96185 379.342505 37.96185 379.342505 C 37.96185 384.863308 33.481617 389.343541 27.960813 389.343541 Z M 27.960813 389.343541 " stroke="#000000" stroke-width="4" stroke-opacity="1" stroke-miterlimit="10"/></g></g><g clip-path="url(#042e79f8f2)"><g clip-path="url(#791e5e5151)"><path fill="#ff3a33" d="M 136.023438 261.789062 C 136.023438 261.789062 120.90625 261.789062 120.90625 261.789062 C 119.414062 261.789062 118.203125 260.578125 118.203125 259.085938 C 118.203125 259.085938 118.203125 114.476562 118.203125 114.476562 C 118.203125 111.925781 120.273438 109.855469 122.828125 109.855469 C 122.828125 109.855469 134.101562 109.855469 134.101562 109.855469 C 136.65625 109.855469 138.722656 111.925781 138.722656 114.476562 C 138.722656 114.476562 138.722656 259.085938 138.722656 259.085938 C 138.722656 260.578125 137.515625 261.789062 136.023438 261.789062 Z M 136.023438 261.789062 " fill-opacity="1" fill-rule="nonzero"/></g></g><g clip-path="url(#06a0c5bba8)"><g clip-path="url(#ec0f291236)"><path stroke-linecap="butt" transform="matrix(0.270284, 0, 0, 0.270284, 128.464591, 185.822483)" fill="none" stroke-linejoin="miter" d="M 27.966262 281.061554 C 27.966262 281.061554 -27.964389 281.061554 -27.964389 281.061554 C -33.485192 281.061554 -37.965425 276.581321 -37.965425 271.060518 C -37.965425 271.060518 -37.965425 -263.966018 -37.965425 -263.966018 C -37.965425 -273.403412 -30.305672 -281.063165 -20.853826 -281.063165 C -20.853826 -281.063165 20.855698 -281.063165 20.855698 -281.063165 C 30.307545 -281.063165 37.952846 -273.403412 37.952846 -263.966018 C 37.952846 -263.966018 37.952846 271.060518 37.952846 271.060518 C 37.952846 276.581321 33.487065 281.061554 27.966262 281.061554 Z M 27.966262 281.061554 " stroke="#000000" stroke-width="4" stroke-opacity="1" stroke-miterlimit="10"/></g></g><g clip-path="url(#e0566f3f79)"><g clip-path="url(#b4ab357f4a)"><path fill="#ffffff" d="M 178.289062 261.789062 C 178.289062 261.789062 163.175781 261.789062 163.175781 261.789062 C 161.683594 261.789062 160.472656 260.578125 160.472656 259.085938 C 160.472656 259.085938 160.472656 143.980469 160.472656 143.980469 C 160.472656 141.425781 162.542969 139.359375 165.09375 139.359375 C 165.09375 139.359375 176.371094 139.359375 176.371094 139.359375 C 178.925781 139.359375 180.992188 141.425781 180.992188 143.980469 C 180.992188 143.980469 180.992188 259.085938 180.992188 259.085938 C 180.992188 260.578125 179.785156 261.789062 178.289062 261.789062 Z M 178.289062 261.789062 " fill-opacity="1" fill-rule="nonzero"/></g></g><g clip-path="url(#e045c2a6d5)"><g clip-path="url(#d5136d1c56)"><path stroke-linecap="butt" transform="matrix(0.270284, 0, 0, 0.270284, 170.733849, 200.573542)" fill="none" stroke-linejoin="miter" d="M 27.952819 226.48551 C 27.952819 226.48551 -27.963379 226.48551 -27.963379 226.48551 C -33.484182 226.48551 -37.964415 222.005277 -37.964415 216.484474 C -37.964415 216.484474 -37.964415 -209.383353 -37.964415 -209.383353 C -37.964415 -218.835199 -30.304662 -226.4805 -20.867268 -226.4805 C -20.867268 -226.4805 20.856708 -226.4805 20.856708 -226.4805 C 30.308555 -226.4805 37.953856 -218.835199 37.953856 -209.383353 C 37.953856 -209.383353 37.953856 216.484474 37.953856 216.484474 C 37.953856 222.005277 33.488075 226.48551 27.952819 226.48551 Z M 27.952819 226.48551 " stroke="#000000" stroke-width="4" stroke-opacity="1" stroke-miterlimit="10"/></g></g><g clip-path="url(#cd0f274068)"><g clip-path="url(#b01465346b)"><path fill="#ff3a33" d="M 204.519531 261.789062 C 204.519531 261.789062 189.40625 261.789062 189.40625 261.789062 C 187.914062 261.789062 186.703125 260.578125 186.703125 259.085938 C 186.703125 259.085938 186.703125 179.671875 186.703125 179.671875 C 186.703125 177.121094 188.773438 175.050781 191.324219 175.050781 C 191.324219 175.050781 202.601562 175.050781 202.601562 175.050781 C 205.15625 175.050781 207.222656 177.121094 207.222656 179.671875 C 207.222656 179.671875 207.222656 259.085938 207.222656 259.085938 C 207.222656 260.578125 206.015625 261.789062 204.519531 261.789062 Z M 204.519531 261.789062 " fill-opacity="1" fill-rule="nonzero"/></g></g><g clip-path="url(#b2cfd42deb)"><g clip-path="url(#fc06af0616)"><path stroke-linecap="butt" transform="matrix(0.270284, 0, 0, 0.270284, 196.964145, 218.419608)" fill="none" stroke-linejoin="miter" d="M 27.953459 160.45854 C 27.953459 160.45854 -27.96274 160.45854 -27.96274 160.45854 C -33.483543 160.45854 -37.963776 155.978307 -37.963776 150.457504 C -37.963776 150.457504 -37.963776 -143.359068 -37.963776 -143.359068 C -37.963776 -152.796462 -30.304023 -160.456215 -20.866629 -160.456215 C -20.866629 -160.456215 20.857348 -160.456215 20.857348 -160.456215 C 30.309194 -160.456215 37.954495 -152.796462 37.954495 -143.359068 C 37.954495 -143.359068 37.954495 150.457504 37.954495 150.457504 C 37.954495 155.978307 33.488714 160.45854 27.953459 160.45854 Z M 27.953459 160.45854 " stroke="#000000" stroke-width="4" stroke-opacity="1" stroke-miterlimit="10"/></g></g><g clip-path="url(#4897af68b8)"><g clip-path="url(#e667de20db)"><path fill="#ffffff" d="M 244.601562 261.789062 C 244.601562 261.789062 229.488281 261.789062 229.488281 261.789062 C 227.996094 261.789062 226.785156 260.578125 226.785156 259.085938 C 226.785156 259.085938 226.785156 205.195312 226.785156 205.195312 C 226.785156 202.640625 228.855469 200.574219 231.40625 200.574219 C 231.40625 200.574219 242.683594 200.574219 242.683594 200.574219 C 245.238281 200.574219 247.304688 202.640625 247.304688 205.195312 C 247.304688 205.195312 247.304688 259.085938 247.304688 259.085938 C 247.304688 260.578125 246.097656 261.789062 244.601562 261.789062 Z M 244.601562 261.789062 " fill-opacity="1" fill-rule="nonzero"/></g></g><g clip-path="url(#70bdbb36a5)"><g clip-path="url(#84222add43)"><path stroke-linecap="butt" transform="matrix(0.270284, 0, 0, 0.270284, 237.046261, 231.181088)" fill="none" stroke-linejoin="miter" d="M 27.953144 113.243548 C 27.953144 113.243548 -27.963055 113.243548 -27.963055 113.243548 C -33.483858 113.243548 -37.964091 108.763315 -37.964091 103.242512 C -37.964091 103.242512 -37.964091 -96.14231 -37.964091 -96.14231 C -37.964091 -105.594156 -30.304338 -113.239457 -20.866944 -113.239457 C -20.866944 -113.239457 20.857033 -113.239457 20.857033 -113.239457 C 30.308879 -113.239457 37.95418 -105.594156 37.95418 -96.14231 C 37.95418 -96.14231 37.95418 103.242512 37.95418 103.242512 C 37.95418 108.763315 33.4884 113.243548 27.953144 113.243548 Z M 27.953144 113.243548 " stroke="#000000" stroke-width="4" stroke-opacity="1" stroke-miterlimit="10"/></g></g><g clip-path="url(#7880bd15f4)"><g clip-path="url(#699d8162e5)"><path fill="#ff3a33" d="M 270.894531 261.789062 C 270.894531 261.789062 255.78125 261.789062 255.78125 261.789062 C 254.285156 261.789062 253.078125 260.578125 253.078125 259.085938 C 253.078125 259.085938 253.078125 231.433594 253.078125 231.433594 C 253.078125 228.878906 255.144531 226.8125 257.699219 226.8125 C 257.699219 226.8125 268.976562 226.8125 268.976562 226.8125 C 271.527344 226.8125 273.597656 228.878906 273.597656 231.433594 C 273.597656 231.433594 273.597656 259.085938 273.597656 259.085938 C 273.597656 260.578125 272.386719 261.789062 270.894531 261.789062 Z M 270.894531 261.789062 " fill-opacity="1" fill-rule="nonzero"/></g></g><g clip-path="url(#6cd023e65f)"><g clip-path="url(#a3afcff97a)"><path stroke-linecap="butt" transform="matrix(0.270284, 0, 0, 0.270284, 263.33656, 244.29963)" fill="none" stroke-linejoin="miter" d="M 27.963021 64.707497 C 27.963021 64.707497 -27.953177 64.707497 -27.953177 64.707497 C -33.488433 64.707497 -37.954213 60.227264 -37.954213 54.706461 C -37.954213 54.706461 -37.954213 -47.601828 -37.954213 -47.601828 C -37.954213 -57.053674 -30.308913 -64.698975 -20.857066 -64.698975 C -20.857066 -64.698975 20.86691 -64.698975 20.86691 -64.698975 C 30.304304 -64.698975 37.964058 -57.053674 37.964058 -47.601828 C 37.964058 -47.601828 37.964058 54.706461 37.964058 54.706461 C 37.964058 60.227264 33.483825 64.707497 27.963021 64.707497 Z M 27.963021 64.707497 " stroke="#000000" stroke-width="4" stroke-opacity="1" stroke-miterlimit="10"/></g></g></svg>